name analog
datacolumns 19
datarows 47
range 0.1815 0.20450000000000002
endheader
time	ground_force_vx	ground_force_vy	ground_force_vz	ground_force_px	ground_force_py	ground_force_pz	l_ground_force_vx	l_ground_force_vy	l_ground_force_vz	l_ground_force_px	l_ground_force_py	l_ground_force_pz	ground_torque_x	ground_torque_y	ground_torque_z	l_ground_torque_x	l_ground_torque_y	l_ground_torque_z
0.1815	-0.0	-0.0	-0.0	-0.0	-0.0	-0.0	2.0037930011749268	2.20804214477539	-498.4446105957031	-0.0	-0.0	-0.0	-0.0	-0.0	-0.0	150976.765625	26483.310546875	-1405.3427734375
0.182	-0.0	-0.0	-0.0	-0.0	-0.0	-0.0	2.147399425506592	3.4445457458496094	-497.8180236816406	-0.0	-0.0	-0.0	-0.0	-0.0	-0.0	151843.703125	26262.162109375	-1338.612548828125
0.1825	-0.0	-0.0	-0.0	-0.0	-0.0	-0.0	2.129058837890625	4.611061096191406	-498.3250427246094	-0.0	-0.0	-0.0	-0.0	-0.0	-0.0	152296.375	26399.859375	-1232.0125732421875
0.183	-0.0	-0.0	-0.0	-0.0	-0.0	-0.0	2.3028242588043213	5.50908899307251	-499.0103759765625	-0.0	-0.0	-0.0	-0.0	-0.0	-0.0	152945.984375	26581.876953125	-1178.56982421875
0.1835	-0.0	-0.0	-0.0	-0.0	-0.0	-0.0	2.432292222976685	6.094196319580078	-499.1567077636719	-0.0	-0.0	-0.0	-0.0	-0.0	-0.0	153174.8125	26647.142578125	-1141.2135009765625
0.184	-0.0	-0.0	-0.0	-0.0	-0.0	-0.0	2.731415033340454	6.991583824157715	-498.8643798828125	-0.0	-0.0	-0.0	-0.0	-0.0	-0.0	153152.421875	26525.6328125	-1000.0994262695312
0.1845	-0.0	-0.0	-0.0	-0.0	-0.0	-0.0	2.75003433227539	6.749641418457031	-499.74615478515625	-0.0	-0.0	-0.0	-0.0	-0.0	-0.0	153565.90625	26572.84765625	-1086.087646484375
0.185	-0.0	-0.0	-0.0	-0.0	-0.0	-0.0	2.4276351928710938	7.028388023376465	-500.6095886230469	-0.0	-0.0	-0.0	-0.0	-0.0	-0.0	154103.484375	26864.0546875	-998.7938842773438
0.1855	-0.0	-0.0	-0.0	-0.0	-0.0	-0.0	2.6236746311187744	6.996155261993408	-499.985107421875	-0.0	-0.0	-0.0	-0.0	-0.0	-0.0	154298.796875	26698.16015625	-1104.706298828125
0.186	-0.0	-0.0	-0.0	-0.0	-0.0	-0.0	2.553725242614746	7.210470676422119	-501.255615234375	-0.0	-0.0	-0.0	-0.0	-0.0	-0.0	154480.09375	26620.548828125	-911.5368041992188
0.1865	-0.0	-0.0	-0.0	-0.0	-0.0	-0.0	2.7182061672210693	7.242378234863281	-502.0054016113281	-0.0	-0.0	-0.0	-0.0	-0.0	-0.0	155266.671875	26779.484375	-894.5264282226562
0.187	-0.0	-0.0	-0.0	-0.0	-0.0	-0.0	2.41421127319336	7.450533390045166	-501.9302978515625	-0.0	-0.0	-0.0	-0.0	-0.0	-0.0	155160.703125	26820.75	-833.3438110351562
0.1875	-0.0	-0.0	-0.0	-0.0	-0.0	-0.0	2.3255774974823	7.400008201599121	-500.6834106445313	-0.0	-0.0	-0.0	-0.0	-0.0	-0.0	155408.125	27031.154296875	-922.4375610351562
0.188	-0.0	-0.0	-0.0	-0.0	-0.0	-0.0	2.4959487915039062	7.438103675842285	-500.4851684570313	-0.0	-0.0	-0.0	-0.0	-0.0	-0.0	155136.71875	26787.0078125	-958.4027709960938
0.1885	-0.0	-0.0	-0.0	-0.0	-0.0	-0.0	2.275444984436035	7.948951721191406	-499.7116394042969	-0.0	-0.0	-0.0	-0.0	-0.0	-0.0	155102.359375	26903.375	-985.6538696289062
0.189	-0.0	-0.0	-0.0	-0.0	-0.0	-0.0	1.959437608718872	7.741639137268066	-500.10638427734375	-0.0	-0.0	-0.0	-0.0	-0.0	-0.0	154973.140625	26799.8828125	-975.5534057617188
0.1895	-0.0	-0.0	-0.0	-0.0	-0.0	-0.0	2.109687805175781	7.388558387756348	-499.013916015625	-0.0	-0.0	-0.0	-0.0	-0.0	-0.0	155138.265625	26802.708984375	-1034.8642578125
0.19	-0.0	-0.0	-0.0	-0.0	-0.0	-0.0	2.0488083362579346	7.330699920654297	-498.598388671875	-0.0	-0.0	-0.0	-0.0	-0.0	-0.0	155118.484375	26819.09375	-1034.9222412109375
0.1905	-0.0	-0.0	-0.0	-0.0	-0.0	-0.0	1.971144676208496	6.78134822845459	-497.9669799804688	-0.0	-0.0	-0.0	-0.0	-0.0	-0.0	155273.96875	26781.8125	-1117.5860595703125
0.191	-0.0	-0.0	-0.0	-0.0	-0.0	-0.0	2.0599145889282227	6.005874633789063	-497.15081787109375	-0.0	-0.0	-0.0	-0.0	-0.0	-0.0	155103.546875	26889.912109375	-1127.735595703125
0.1915	-0.0	-0.0	-0.0	-0.0	-0.0	-0.0	1.7938592433929443	5.711260318756104	-497.93011474609375	-0.0	-0.0	-0.0	-0.0	-0.0	-0.0	154921.625	26681.150390625	-1269.4376220703125
0.192	-0.0	-0.0	-0.0	-0.0	-0.0	-0.0	1.09410297870636	4.877318859100342	-498.5497131347656	-0.0	-0.0	-0.0	-0.0	-0.0	-0.0	155445.25	27069.16796875	-1530.627197265625
0.1925	-0.0	-0.0	-0.0	-0.0	-0.0	-0.0	0.5028716325759888	4.5145134925842285	-500.17864990234375	-0.0	-0.0	-0.0	-0.0	-0.0	-0.0	155473.875	27172.34765625	-1676.1224365234375
0.193	-0.0	-0.0	-0.0	-0.0	-0.0	-0.0	0.1482596695423126	3.768798589706421	-499.870361328125	-0.0	-0.0	-0.0	-0.0	-0.0	-0.0	155719.984375	27301.59765625	-1781.8935546875
0.1935	-0.0	-0.0	-0.0	-0.0	-0.0	-0.0	-0.1774215698242187	2.8749725818634038	-502.350830078125	-0.0	-0.0	-0.0	-0.0	-0.0	-0.0	156122.75	27543.015625	-1931.1810302734373
0.194	-0.0	-0.0	-0.0	-0.0	-0.0	-0.0	-0.257340669631958	2.422083854675293	-502.93560791015625	-0.0	-0.0	-0.0	-0.0	-0.0	-0.0	156441.75	27674.048828125	-2053.067626953125
0.1945	-0.0	-0.0	-0.0	-0.0	-0.0	-0.0	-0.3864627778530121	1.0030194520950315	-504.8732299804688	-0.0	-0.0	-0.0	-0.0	-0.0	-0.0	156728.078125	27945.064453125	-2086.048095703125
0.195	-0.0	-0.0	-0.0	-0.0	-0.0	-0.0	-0.2779944241046905	-0.06829534471035	-505.7623901367188	-0.0	-0.0	-0.0	-0.0	-0.0	-0.0	156794.203125	28043.5390625	-2056.51953125
0.1955	-0.0	-0.0	-0.0	-0.0	-0.0	-0.0	-0.7702611684799194	-1.5416748523712158	-508.6969909667969	-0.0	-0.0	-0.0	-0.0	-0.0	-0.0	156901.75	28197.044921875	-2143.502197265625
0.196	-0.0	-0.0	-0.0	-0.0	-0.0	-0.0	-1.2496193647384644	-2.854100465774536	-509.4122314453125	-0.0	-0.0	-0.0	-0.0	-0.0	-0.0	157193.875	28313.6796875	-2377.301025390625
0.1965	-0.0	-0.0	-0.0	-0.0	-0.0	-0.0	-1.794535756111145	-4.110657215118408	-507.2880554199219	-0.0	-0.0	-0.0	-0.0	-0.0	-0.0	157114.75	28708.53125	-2736.381591796875
0.197	-0.0	-0.0	-0.0	-0.0	-0.0	-0.0	-2.8387451171875	-4.92570686340332	-508.47308349609375	-0.0	-0.0	-0.0	-0.0	-0.0	-0.0	156896.59375	28865.732421875	-2864.6591796875
0.1975	-0.0	-0.0	-0.0	-0.0	-0.0	-0.0	-2.8796772956848145	-5.788478851318359	-508.5528259277344	-0.0	-0.0	-0.0	-0.0	-0.0	-0.0	156812.3125	28926.287109375	-2965.367919921875
0.198	-0.0	-0.0	-0.0	-0.0	-0.0	-0.0	-3.3438873291015625	-5.958431720733643	-509.2506408691406	-0.0	-0.0	-0.0	-0.0	-0.0	-0.0	157035.546875	29442.08984375	-3054.62744140625
0.1985	-0.0	-0.0	-0.0	-0.0	-0.0	-0.0	-2.9623594284057617	-6.359161376953125	-509.3873901367188	-0.0	-0.0	-0.0	-0.0	-0.0	-0.0	156890.46875	29655.189453125	-2956.347412109375
0.199	-0.0	-0.0	-0.0	-0.0	-0.0	-0.0	-3.3029608726501465	-5.944161415100098	-509.6800231933594	-0.0	-0.0	-0.0	-0.0	-0.0	-0.0	157233.21875	29913.470703125	-2961.325927734375
0.1995	-0.0	-0.0	-0.0	-0.0	-0.0	-0.0	-3.0311498641967773	-5.652587890625	-511.6703796386719	-0.0	-0.0	-0.0	-0.0	-0.0	-0.0	157614.671875	29890.078125	-2860.198974609375
0.2	-0.0	-0.0	-0.0	-0.0	-0.0	-0.0	-3.0369741916656494	-5.128114223480225	-511.9166259765625	-0.0	-0.0	-0.0	-0.0	-0.0	-0.0	157915.984375	30163.533203125	-2812.755859375
0.2005	-0.0	-0.0	-0.0	-0.0	-0.0	-0.0	-2.4369256496429443	-4.416084289550781	-513.2735595703125	-0.0	-0.0	-0.0	-0.0	-0.0	-0.0	157959.171875	30494.990234375	-2681.349365234375
0.201	-0.0	-0.0	-0.0	-0.0	-0.0	-0.0	-2.10811448097229	-3.600336790084839	-514.2808837890625	-0.0	-0.0	-0.0	-0.0	-0.0	-0.0	158578.75	30889.775390625	-2447.22216796875
0.2015	-0.0	-0.0	-0.0	-0.0	-0.0	-0.0	-2.4208626747131348	-3.091259002685547	-513.8684692382812	-0.0	-0.0	-0.0	-0.0	-0.0	-0.0	158682.21875	30827.939453125	-2427.931640625
0.202	-0.0	-0.0	-0.0	-0.0	-0.0	-0.0	-2.509382724761963	-2.405669689178467	-513.933837890625	-0.0	-0.0	-0.0	-0.0	-0.0	-0.0	158625.3125	31302.26171875	-2412.230712890625
0.2025	-0.0	-0.0	-0.0	-0.0	-0.0	-0.0	-2.75003433227539	-2.052455425262451	-516.12939453125	-0.0	-0.0	-0.0	-0.0	-0.0	-0.0	158990.8125	31627.419921875	-2471.66455078125
0.203	-0.0	-0.0	-0.0	-0.0	-0.0	-0.0	-3.324716091156006	-1.49760901927948	-516.9113159179688	-0.0	-0.0	-0.0	-0.0	-0.0	-0.0	159224.578125	31972.53515625	-2658.32470703125
0.20350000000000001	-0.0	-0.0	-0.0	-0.0	-0.0	-0.0	-4.261685848236084	-1.2788881063461304	-516.395263671875	-0.0	-0.0	-0.0	-0.0	-0.0	-0.0	159114.1875	32108.970703125	-2702.783447265625
0.20400000000000001	-0.0	-0.0	-0.0	-0.0	-0.0	-0.0	-4.698378562927246	-1.144903540611267	-516.3112182617188	-0.0	-0.0	-0.0	-0.0	-0.0	-0.0	158673.609375	32636.306640625	-2813.47412109375
0.20450000000000002	-0.0	-0.0	-0.0	-0.0	-0.0	-0.0	-5.454185485839844	-0.9075791835784912	-515.2634887695312	-0.0	-0.0	-0.0	-0.0	-0.0	-0.0	158361.546875	33103.796875	-2792.529296875
